# xmcd CD database file
#
# Track frame offsets:
#	150
#	12030
#	23365
#	32370
#	42225
#	55680
#	67545
#	79170
#	91700
#	107550
#	118160
#	132750
#	145960
#	158270
#	171519
#	182605
#	191715
#	201630
#	216025
#	229615
#
# Disc length: 3220 seconds
#
# Revision: 0
# Processed by: cddbd v1.5.2PL0 Copyright (c) Steve Scherf et al.
# Submitted via: CDex 1.51
#
DISCID=f60c9214
DTITLE=Kitty Wells - The Very Best
DYEAR=1952
DGENRE=Country
TTITLE0=It Wasn't God Who Made Honky Tonk Angels
TTITLE1=Mommy For a Day
TTITLE2=I'll Reposess My Heart
TTITLE3=Release Me
TTITLE4=I Gave My Wedding Dress Away
TTITLE5=Amigo's Guitar
TTITLE6=Heartbreak U.S.A.
TTITLE7=Making Believe
TTITLE8=I'll Get Over You
TTITLE9=A Wedding Ring Ago
TTITLE10=If You Love Me Let Me Know
TTITLE11=Blue Eyes Crying in the Rain
TTITLE12=You and Me
TTITLE13=Paper Roses
TTITLE14=I Can't Help it if I'm Still in Love With You
TTITLE15=I'll Hold You in My Arms
TTITLE16=I can't Stop Loving You
TTITLE17=One by One
TTITLE18=Born to Lose
TTITLE19=There Goes My Everything
EXTD=YEAR: 1952
EXTT0=
EXTT1=
EXTT2=
EXTT3=
EXTT4=
EXTT5=
EXTT6=
EXTT7=
EXTT8=
EXTT9=
EXTT10=
EXTT11=
EXTT12=
EXTT13=
EXTT14=
EXTT15=
EXTT16=
EXTT17=
EXTT18=
EXTT19=
PLAYORDER=
